<svg width="16" height="16" viewBox="0 0 16 16" fill="none" xmlns="http://www.w3.org/2000/svg">
<path fill-rule="evenodd" clip-rule="evenodd" d="M8 0C3.584 0 0 3.584 0 8C0 12.416 3.584 16 8 16C12.416 16 16 12.416 16 8C16 3.584 12.416 0 8 0ZM10.888 5.07202C11.744 5.07202 12.432 5.76002 12.432 6.61602C12.432 7.47202 11.744 8.16002 10.888 8.16002C10.032 8.16002 9.34401 7.47202 9.34401 6.61602C9.33601 5.76002 10.032 5.07202 10.888 5.07202ZM7.976 5.69601C7.976 4.65601 7.128 3.80801 6.088 3.80801C5.04 3.80801 4.2 4.64801 4.2 5.69601C4.2 6.73601 5.048 7.58401 6.088 7.58401C7.128 7.58401 7.976 6.73601 7.976 5.69601ZM6.08798 11.112V14.112C4.16798 13.512 2.64798 12.032 1.97598 10.144C2.81598 9.24799 4.91198 8.79199 6.08798 8.79199C6.51198 8.79199 7.04798 8.85599 7.60798 8.96799C6.29598 9.66399 6.08798 10.584 6.08798 11.112ZM7.36797 14.368C7.57597 14.392 7.78397 14.4 7.99997 14.4C10.712 14.4 13.024 12.704 13.96 10.328C13.224 9.72001 11.744 9.40801 10.888 9.40801C9.71997 9.40801 7.36797 9.97601 7.36797 11.112V14.368Z" fill="#395E66"/>
</svg>
