<svg width="126" height="32" viewBox="0 0 126 32" fill="none" xmlns="http://www.w3.org/2000/svg">
    <path
        d="M7.29114 14.011C7.29114 14.4785 7.19679 14.8992 7.01236 15.2689C6.82794 15.6387 6.58347 15.9574 6.27467 16.2251C5.96587 16.4928 5.61847 16.7053 5.22389 16.8626C4.82931 17.024 4.42186 17.1218 3.99726 17.16C3.77853 17.1813 3.55121 17.1813 3.31532 17.1685C3.07943 17.1558 2.82639 17.109 2.56477 17.0368C2.62052 16.9051 2.68486 16.7648 2.75777 16.6203C2.82639 16.4758 2.91217 16.3399 3.0151 16.2209C3.11375 16.0976 3.22955 15.9956 3.35392 15.9106C3.48259 15.8256 3.62413 15.7746 3.7871 15.7576C3.98439 15.7406 4.16882 15.6812 4.34037 15.5834C4.51193 15.4857 4.65775 15.3582 4.78642 15.2052C4.91509 15.0522 5.01373 14.8695 5.09093 14.6655C5.16813 14.4615 5.20244 14.2448 5.20244 14.0195C5.20244 13.7773 5.15527 13.5478 5.06091 13.3396C4.96655 13.1271 4.82931 12.9444 4.65775 12.7829C4.4862 12.6214 4.27604 12.4982 4.03586 12.4047C3.79568 12.3112 3.52548 12.2644 3.23384 12.2644C3.10088 12.2644 2.98937 12.2687 2.8993 12.2729C2.80923 12.2772 2.72346 12.2814 2.63768 12.2857C2.5519 12.2899 2.46183 12.2984 2.36748 12.3154C2.27312 12.3282 2.1659 12.3409 2.04152 12.3494V21.2355H0V11.1298C0.377424 11.0618 0.711959 11.0108 1.00789 10.9683C1.29954 10.9258 1.56974 10.8918 1.80992 10.8705C2.0501 10.8493 2.28599 10.8323 2.5133 10.8238C2.74061 10.8153 2.98079 10.811 3.23812 10.811C3.81284 10.811 4.34895 10.8875 4.84218 11.0363C5.3354 11.185 5.76429 11.3975 6.12456 11.678C6.48912 11.9542 6.77647 12.2899 6.98234 12.6809C7.18821 13.0719 7.29114 13.5181 7.29114 14.011Z"
        fill="black" />
    <path
        d="M13.0641 18.8899L12.3136 21.1252H10.3149L14.0163 10.9048H16.002L19.7034 21.1252H17.6018L15.0499 13.5183L14.9384 12.9999L14.8097 13.5481L13.6045 17.19L13.433 17.4705L13.6474 17.445H14.7239C14.9298 17.445 15.1099 17.4918 15.2643 17.5853C15.4145 17.6788 15.5474 17.7977 15.6632 17.938C15.7747 18.0782 15.8734 18.2355 15.9549 18.4097C16.0363 18.5839 16.1007 18.7454 16.1479 18.8942L13.0641 18.8899Z"
        fill="black" />
    <path
        d="M31.4293 13.943C31.4293 14.504 31.3007 14.9927 31.0476 15.4049C30.7903 15.8171 30.4515 16.1486 30.0269 16.4036L29.628 16.5566C29.6666 16.5778 29.7181 16.5991 29.7824 16.6288C29.8467 16.6586 29.9025 16.6841 29.9368 16.7138C30.2199 16.9603 30.4429 17.245 30.6016 17.5808C30.7603 17.9122 30.9018 18.2735 31.0219 18.6644C31.142 19.0554 31.2578 19.4634 31.3779 19.9011C31.4979 20.3388 31.6609 20.7808 31.8668 21.2312H29.7824C29.6108 20.8742 29.4779 20.4918 29.3792 20.0838C29.2806 19.6758 29.1734 19.2806 29.0618 18.8939C28.9503 18.5114 28.8174 18.1545 28.663 17.8272C28.5129 17.5 28.3027 17.2323 28.0411 17.024C27.8438 17.0453 27.6336 17.0453 27.4106 17.0325C27.1876 17.0198 26.956 16.9731 26.7072 16.9008C26.763 16.7691 26.8273 16.6331 26.9002 16.4843C26.9689 16.3399 27.0546 16.2039 27.1576 16.0764C27.2562 15.9489 27.372 15.8426 27.4964 15.7576C27.6251 15.6727 27.7666 15.6217 27.9296 15.6047C28.1269 15.5877 28.3113 15.5324 28.4828 15.4432C28.6544 15.3539 28.8002 15.2392 28.9289 15.0905C29.0576 14.946 29.1562 14.776 29.2334 14.5762C29.3106 14.3765 29.3449 14.1683 29.3449 13.943C29.3449 13.6966 29.2934 13.4756 29.1905 13.2673C29.0876 13.0634 28.946 12.8849 28.7702 12.7319C28.5944 12.5831 28.3885 12.4642 28.144 12.3792C27.9038 12.2942 27.6465 12.2517 27.372 12.2517C27.2391 12.2517 27.1276 12.2559 27.0375 12.2602C26.9474 12.2644 26.8616 12.2687 26.7759 12.2729C26.6901 12.2772 26.6 12.2857 26.5057 12.3027C26.4113 12.3154 26.3041 12.3282 26.1797 12.3367V21.2227H24.1382V11.1298C24.5156 11.0618 24.8501 11.0108 25.1461 10.9683C25.4377 10.9258 25.7079 10.8918 25.9481 10.8705C26.1883 10.8493 26.4242 10.8323 26.6515 10.8238C26.8788 10.8153 27.119 10.811 27.3763 10.811C27.9339 10.811 28.4614 10.8833 28.9503 11.0235C29.4436 11.1638 29.8725 11.3677 30.2413 11.6355C30.6101 11.9032 30.9018 12.2304 31.1162 12.6214C31.3221 13.0039 31.4293 13.4458 31.4293 13.943Z"
        fill="black" />
    <path
        d="M38.7116 18.8899L37.961 21.1252H35.9624L39.6637 10.9048H41.6495L45.3508 21.1252H43.2493L40.6974 13.5183L40.5858 12.9999L40.4572 13.5481L39.252 17.19L39.0804 17.4705L39.2949 17.445H40.3714C40.5773 17.445 40.7574 17.4918 40.9118 17.5853C41.0619 17.6788 41.1949 17.7977 41.3107 17.938C41.4222 18.0782 41.5208 18.2355 41.6023 18.4097C41.6838 18.5839 41.7481 18.7454 41.7953 18.8942L38.7116 18.8899Z"
        fill="black" />
    <path
        d="M53.7572 19.8545C54.2976 19.8545 54.7608 19.744 55.1554 19.5188C55.5499 19.2936 55.8716 18.9961 56.1289 18.6349C56.3863 18.2694 56.5707 17.8572 56.6908 17.3982C56.8109 16.9392 56.8666 16.476 56.8666 16.0086C56.8666 15.4561 56.7937 14.9461 56.6479 14.4744C56.5021 14.007 56.2705 13.6032 55.9574 13.2675C55.6443 12.9318 55.2454 12.6683 54.7565 12.4728C54.2676 12.2816 53.6843 12.1839 52.998 12.1839C52.8093 12.1839 52.612 12.1924 52.4062 12.2094C52.2046 12.2306 51.9901 12.2561 51.7714 12.2943V21.1379H49.7856V11.0959C50.4204 10.9642 51.0123 10.8707 51.5613 10.8155C52.1102 10.7602 52.5906 10.7305 53.0066 10.7305C53.9545 10.7305 54.7951 10.8495 55.5414 11.0874C56.2833 11.3254 56.9138 11.6696 57.4285 12.1201C57.9431 12.5706 58.3377 13.1188 58.6079 13.7732C58.8781 14.4234 59.0111 15.1671 59.0111 16.0001C59.0111 16.7395 58.8824 17.4322 58.6294 18.0824C58.372 18.7283 58.0246 19.2893 57.5786 19.7695C57.1325 20.2455 56.6007 20.6237 55.9831 20.8957C55.3612 21.1677 54.6922 21.3036 53.9759 21.3036C53.843 21.3036 53.7229 21.3036 53.6156 21.2951C53.5084 21.2909 53.3926 21.2781 53.2682 21.2611C53.1439 21.2441 53.0109 21.2186 52.8651 21.1889C52.7193 21.1634 52.5391 21.1209 52.3333 21.0614C52.389 20.9382 52.4619 20.8107 52.5477 20.6662C52.6335 20.526 52.7321 20.3942 52.8479 20.271C52.9594 20.1477 53.0924 20.05 53.2468 19.9692C53.384 19.8928 53.5599 19.8545 53.7572 19.8545Z"
        fill="black" />
    <path fill-rule="evenodd" clip-rule="evenodd"
        d="M65.6291 20.9211C66.2596 21.1931 66.9887 21.3291 67.8121 21.3291C68.6356 21.3291 69.3647 21.1804 70.0124 20.8914C70.6514 20.5939 71.1875 20.2029 71.6164 19.71C72.0453 19.217 72.3755 18.6518 72.6029 18.0144C72.8302 17.3769 72.9417 16.7097 72.9417 16.017C72.9417 15.3966 72.8473 14.7719 72.6629 14.1387C72.4785 13.5055 72.1825 12.9318 71.7708 12.4218C71.3591 11.9118 70.8273 11.4954 70.1796 11.1766C69.532 10.8579 68.7428 10.7007 67.8164 10.7007C67.0015 10.7007 66.281 10.8409 65.6463 11.1172C65.0158 11.3934 64.4797 11.7758 64.0379 12.2561C63.5962 12.7405 63.2616 13.3057 63.03 13.9517C62.7984 14.5976 62.6826 15.2861 62.6826 16.017C62.6826 16.7735 62.7941 17.4789 63.0214 18.1249C63.2488 18.7708 63.579 19.3318 64.0208 19.8035C64.4582 20.2752 64.9943 20.6492 65.6291 20.9211ZM66.5212 12.46C66.89 12.2518 67.3189 12.1498 67.8121 12.1498C68.2754 12.1498 68.6914 12.2476 69.0645 12.4473C69.4334 12.6428 69.7464 12.9105 69.9995 13.2547C70.2525 13.599 70.4498 14.0069 70.5871 14.4786C70.7243 14.9504 70.7929 15.4646 70.7929 16.017C70.7929 16.6375 70.7115 17.1857 70.5442 17.6616C70.3769 18.1376 70.1582 18.5413 69.8837 18.8685C69.6092 19.1958 69.2918 19.4465 68.9316 19.6207C68.5713 19.795 68.1982 19.88 67.8121 19.88C67.3189 19.88 66.89 19.7695 66.5212 19.5485C66.1523 19.3275 65.8393 19.0385 65.5905 18.6773C65.3417 18.3161 65.153 17.9039 65.0244 17.4407C64.8957 16.9774 64.8314 16.5015 64.8314 16.0128C64.8314 15.4986 64.8957 15.0056 65.0244 14.5381C65.1487 14.0707 65.3417 13.6585 65.5905 13.3015C65.8435 12.9488 66.1523 12.664 66.5212 12.46Z"
        fill="black" />
    <path fill-rule="evenodd" clip-rule="evenodd"
        d="M78.9073 10.9048H76.6642L82.8316 21.1252H85.0318L81.798 15.9534L84.8774 10.9048H82.6515L80.9059 14.2663L80.7944 14.704L80.6528 14.2663L78.9073 10.9048ZM76.5098 21.1252H78.68L79.8337 19.0896C79.9538 18.8729 80.0138 18.6434 80.0095 18.3927C80.0052 18.142 79.9666 17.904 79.898 17.6745C79.8251 17.4408 79.7307 17.2283 79.6192 17.0328C79.5034 16.8373 79.4048 16.6801 79.319 16.5568L76.5098 21.1252Z"
        fill="black" />
    <path d="M85.6323 11.0238V10.9048H86.0865V11.0238H85.9222V11.742H85.7998V11.0238H85.6323Z" fill="black" />
    <path
        d="M86.6445 10.9048H86.8546L87.0391 11.5507L87.0476 11.5932L87.0562 11.5507L87.2406 10.9048H87.4508L87.528 11.7377H87.3779L87.3307 11.1088L87.3264 11.0535L87.3135 11.1088L87.1291 11.725H86.9576L86.7731 11.1045L86.7603 11.0493L86.756 11.1045L86.7131 11.7335H86.563L86.6445 10.9048Z"
        fill="black" />
    <path
        d="M120.712 27.3134C126.95 21.0651 126.95 10.9399 120.712 4.6873C119.351 3.32675 117.132 3.32675 115.771 4.6873C114.41 6.04785 114.41 8.27421 115.771 9.63903C119.278 13.1534 119.278 18.8516 115.771 22.3617C112.263 25.8761 106.576 25.8761 103.073 22.3617C101.315 20.6002 100.44 18.3014 100.44 15.9982C100.44 8.35951 105.778 1.97472 112.916 0.38812C111.794 0.136482 110.621 0 109.422 0C100.602 0 93.4512 7.16103 93.4512 15.9982C93.4512 18.0497 93.8394 20.097 94.6245 22.0248C96.3227 26.0638 99.3905 29.1261 103.209 30.7511C106.439 32.0647 109.759 32.3249 112.916 31.6126C115.771 30.9771 118.493 29.5398 120.712 27.3134Z"
        fill="#25C9D0" />
</svg>
